<svg xmlns="http://www.w3.org/2000/svg" width="1200" height="630" viewBox="0 0 1200 630" role="img" aria-labelledby="title desc">
  <title id="title">LOCKSTEP preview card</title>
  <desc id="desc">A neon pixel-art preview card for LOCKSTEP with a dark sci-fi gradient and maze tiles.</desc>
  <defs>
    <linearGradient id="bg" x1="0" y1="0" x2="1" y2="1">
      <stop offset="0%" stop-color="#040913" />
      <stop offset="55%" stop-color="#0f2236" />
      <stop offset="100%" stop-color="#12213f" />
    </linearGradient>
    <radialGradient id="glowA" cx="22%" cy="20%" r="45%">
      <stop offset="0%" stop-color="#45d8ff" stop-opacity="0.34" />
      <stop offset="100%" stop-color="#45d8ff" stop-opacity="0" />
    </radialGradient>
    <radialGradient id="glowB" cx="82%" cy="76%" r="55%">
      <stop offset="0%" stop-color="#46f8a7" stop-opacity="0.24" />
      <stop offset="100%" stop-color="#46f8a7" stop-opacity="0" />
    </radialGradient>
  </defs>

  <rect width="1200" height="630" fill="url(#bg)" />
  <rect width="1200" height="630" fill="url(#glowA)" />
  <rect width="1200" height="630" fill="url(#glowB)" />

  <g opacity="0.26" stroke="#7bc8ff" stroke-width="1">
    <path d="M0 84h1200M0 168h1200M0 252h1200M0 336h1200M0 420h1200M0 504h1200" />
    <path d="M92 0v630M184 0v630M276 0v630M368 0v630M460 0v630M552 0v630M644 0v630M736 0v630M828 0v630M920 0v630M1012 0v630M1104 0v630" />
  </g>

  <g transform="translate(96 128)">
    <rect width="432" height="352" rx="16" fill="#07111d" fill-opacity="0.84" stroke="#77d4ff" stroke-opacity="0.42" />

    <g transform="translate(28 26)">
      <rect x="0" y="0" width="50" height="50" fill="#c4ced8" />
      <rect x="50" y="0" width="50" height="50" fill="#c4ced8" />
      <rect x="100" y="0" width="50" height="50" fill="#c4ced8" />
      <rect x="150" y="0" width="50" height="50" fill="#c4ced8" />
      <rect x="200" y="0" width="50" height="50" fill="#c4ced8" />
      <rect x="250" y="0" width="50" height="50" fill="#c4ced8" />
      <rect x="300" y="0" width="50" height="50" fill="#c4ced8" />

      <rect x="0" y="50" width="50" height="50" fill="#c4ced8" />
      <rect x="50" y="50" width="50" height="50" fill="#1d2532" />
      <rect x="100" y="50" width="50" height="50" fill="#f8fbff" />
      <rect x="150" y="50" width="50" height="50" fill="#1d2532" />
      <rect x="200" y="50" width="50" height="50" fill="#1d2532" />
      <rect x="250" y="50" width="50" height="50" fill="#19c56e" />
      <rect x="300" y="50" width="50" height="50" fill="#c4ced8" />

      <rect x="0" y="100" width="50" height="50" fill="#c4ced8" />
      <rect x="50" y="100" width="50" height="50" fill="#1d2532" />
      <rect x="100" y="100" width="50" height="50" fill="#1d2532" />
      <rect x="150" y="100" width="50" height="50" fill="#1d2532" />
      <rect x="200" y="100" width="50" height="50" fill="#bb4b1d" />
      <rect x="250" y="100" width="50" height="50" fill="#1d2532" />
      <rect x="300" y="100" width="50" height="50" fill="#c4ced8" />

      <rect x="0" y="150" width="50" height="50" fill="#c4ced8" />
      <rect x="50" y="150" width="50" height="50" fill="#721f36" />
      <rect x="100" y="150" width="50" height="50" fill="#721f36" />
      <rect x="150" y="150" width="50" height="50" fill="#1d2532" />
      <rect x="200" y="150" width="50" height="50" fill="#1d2532" />
      <rect x="250" y="150" width="50" height="50" fill="#1d2532" />
      <rect x="300" y="150" width="50" height="50" fill="#c4ced8" />

      <rect x="0" y="200" width="50" height="50" fill="#c4ced8" />
      <rect x="50" y="200" width="50" height="50" fill="#1d2532" />
      <rect x="100" y="200" width="50" height="50" fill="#f8fbff" />
      <rect x="150" y="200" width="50" height="50" fill="#1d2532" />
      <rect x="200" y="200" width="50" height="50" fill="#1d2532" />
      <rect x="250" y="200" width="50" height="50" fill="#19c56e" />
      <rect x="300" y="200" width="50" height="50" fill="#c4ced8" />

      <rect x="0" y="250" width="50" height="50" fill="#c4ced8" />
      <rect x="50" y="250" width="50" height="50" fill="#c4ced8" />
      <rect x="100" y="250" width="50" height="50" fill="#c4ced8" />
      <rect x="150" y="250" width="50" height="50" fill="#c4ced8" />
      <rect x="200" y="250" width="50" height="50" fill="#c4ced8" />
      <rect x="250" y="250" width="50" height="50" fill="#c4ced8" />
      <rect x="300" y="250" width="50" height="50" fill="#c4ced8" />
    </g>
  </g>

  <g transform="translate(578 156)">
    <text x="0" y="0" fill="#f5fbff" font-size="118" font-family="Trebuchet MS, Segoe UI, sans-serif" font-weight="700" letter-spacing="10">LOCKSTEP</text>
    <text x="0" y="72" fill="#6ce2ff" font-size="36" font-family="Trebuchet MS, Segoe UI, sans-serif" letter-spacing="3">MOVE ALL PLAYERS TO THE GOAL</text>
    <text x="0" y="128" fill="#9eb7cf" font-size="29" font-family="Trebuchet MS, Segoe UI, sans-serif">Avoid lava. Dodge enemies. Race the leaderboard.</text>

    <g transform="translate(0 178)">
      <rect x="0" y="0" width="560" height="168" rx="16" fill="#09111b" fill-opacity="0.86" stroke="#7fd7ff" stroke-opacity="0.3" />
      <text x="24" y="52" fill="#76ffbe" font-size="30" font-family="Trebuchet MS, Segoe UI, sans-serif" letter-spacing="2">LIVE AT lockstep.binoy.co</text>
      <text x="24" y="98" fill="#d6e8fb" font-size="26" font-family="Trebuchet MS, Segoe UI, sans-serif">Custom levels • Authenticated scores • Mobile swipe controls</text>
      <text x="24" y="138" fill="#7cb5da" font-size="20" font-family="Trebuchet MS, Segoe UI, sans-serif">Press ESC for Level Select and Level Editor actions.</text>
    </g>
  </g>
</svg>
